<?xml version="1.0" encoding="UTF-8"?>
<svg xmlns="http://www.w3.org/2000/svg" xmlns:xlink="http://www.w3.org/1999/xlink" width="810pt" height="809.999993pt" viewBox="0 0 810 809.999993" version="1.2">
<defs>
<clipPath id="clip1">
  <path d="M 54.6875 89.71875 L 755.1875 89.71875 L 755.1875 720.46875 L 54.6875 720.46875 Z M 54.6875 89.71875 "/>
</clipPath>
</defs>
<g id="surface1">
<path style=" stroke:none;fill-rule:nonzero;fill:rgb(56.079102%,79.60968%,85.879517%);fill-opacity:1;" d="M 66.363281 671.78125 C 66.363281 665.4375 68.003906 659.140625 71.148438 653.574219 L 372.832031 120.746094 C 379.578125 108.792969 392.257812 101.402344 405.984375 101.402344 C 419.757812 101.402344 432.480469 108.839844 439.230469 120.839844 L 738.769531 653.621094 C 741.871094 659.140625 743.511719 665.394531 743.511719 671.78125 C 743.511719 692.222656 726.957031 708.785156 706.527344 708.785156 L 103.300781 708.785156 C 82.917969 708.785156 66.363281 692.222656 66.363281 671.78125 "/>
<path style=" stroke:none;fill-rule:nonzero;fill:rgb(0.779724%,57.249451%,71.759033%);fill-opacity:1;" d="M 738.769531 653.621094 L 549.09375 316.304688 C 469.695312 526.460938 324.578125 644.585938 208.195312 708.785156 L 706.527344 708.785156 C 726.957031 708.785156 743.511719 692.222656 743.511719 671.78125 C 743.511719 665.394531 741.871094 659.140625 738.769531 653.621094 "/>
<path style=" stroke:none;fill-rule:nonzero;fill:rgb(87.838745%,21.958923%,20.779419%);fill-opacity:1;" d="M 323.210938 533.578125 L 299.863281 533.578125 L 299.863281 568.617188 L 279.386719 568.617188 L 299.589844 477.730469 L 276.785156 472.621094 L 253.433594 577.746094 C 252.660156 581.210938 253.527344 584.863281 255.714844 587.597656 C 257.949219 590.382812 261.28125 591.980469 264.835938 591.980469 L 299.863281 591.980469 L 299.863281 615.339844 L 323.210938 615.339844 L 323.210938 591.980469 L 334.886719 591.980469 L 334.886719 568.617188 L 323.210938 568.617188 L 323.210938 533.578125 "/>
<path style=" stroke:none;fill-rule:nonzero;fill:rgb(87.838745%,21.958923%,20.779419%);fill-opacity:1;" d="M 428.285156 568.617188 C 428.285156 581.484375 417.796875 591.980469 404.9375 591.980469 C 392.074219 591.980469 381.585938 581.484375 381.585938 568.617188 L 381.585938 521.898438 C 381.585938 509.03125 392.074219 498.535156 404.9375 498.535156 C 417.796875 498.535156 428.285156 509.03125 428.285156 521.898438 Z M 404.9375 475.175781 C 379.167969 475.175781 358.238281 496.117188 358.238281 521.898438 L 358.238281 568.617188 C 358.238281 594.398438 379.167969 615.339844 404.9375 615.339844 C 430.703125 615.339844 451.636719 594.398438 451.636719 568.617188 L 451.636719 521.898438 C 451.636719 496.117188 430.703125 475.175781 404.9375 475.175781 "/>
<path style=" stroke:none;fill-rule:nonzero;fill:rgb(87.838745%,21.958923%,20.779419%);fill-opacity:1;" d="M 556.710938 568.617188 L 545.035156 568.617188 L 545.035156 533.578125 L 521.6875 533.578125 L 521.6875 568.617188 L 501.210938 568.617188 L 521.414062 477.730469 L 498.609375 472.621094 L 475.261719 577.746094 C 474.484375 581.210938 475.351562 584.863281 477.539062 587.597656 C 479.773438 590.382812 483.105469 591.980469 486.660156 591.980469 L 521.6875 591.980469 L 521.6875 615.339844 L 545.035156 615.339844 L 545.035156 591.980469 L 556.710938 591.980469 L 556.710938 568.617188 "/>
<path style=" stroke:none;fill-rule:nonzero;fill:rgb(87.838745%,21.958923%,20.779419%);fill-opacity:1;" d="M 393.261719 253.246094 L 393.261719 370.050781 L 416.613281 370.050781 L 416.613281 253.246094 L 393.261719 253.246094 "/>
<path style=" stroke:none;fill-rule:nonzero;fill:rgb(87.838745%,21.958923%,20.779419%);fill-opacity:1;" d="M 393.261719 416.773438 L 416.613281 416.773438 L 416.613281 393.414062 L 393.261719 393.414062 L 393.261719 416.773438 "/>
<g clip-path="url(#clip1)" clip-rule="nonzero">
<path style=" stroke:none;fill-rule:nonzero;fill:rgb(1.959229%,3.919983%,18.818665%);fill-opacity:1;" d="M 706.527344 697.105469 L 103.300781 697.105469 C 89.390625 697.105469 78.035156 685.742188 78.035156 671.78125 C 78.035156 667.445312 79.175781 663.15625 81.320312 659.371094 L 383 126.496094 C 387.652344 118.238281 396.5 113.082031 405.984375 113.082031 C 415.515625 113.082031 424.363281 118.238281 429.0625 126.585938 L 728.597656 659.324219 C 730.695312 663.113281 731.835938 667.402344 731.835938 671.78125 C 731.835938 685.742188 720.480469 697.105469 706.527344 697.105469 Z M 449.402344 115.089844 C 440.601562 99.441406 423.953125 89.722656 405.984375 89.722656 C 388.109375 89.722656 371.507812 99.394531 362.660156 115 L 61.027344 647.828125 C 56.875 655.128906 54.6875 663.429688 54.6875 671.78125 C 54.6875 698.65625 76.484375 720.464844 103.300781 720.464844 L 706.527344 720.464844 C 733.339844 720.464844 755.1875 698.609375 755.1875 671.78125 C 755.1875 663.386719 753.042969 655.171875 748.9375 647.871094 L 449.402344 115.089844 "/>
</g>
<path style=" stroke:none;fill-rule:nonzero;fill:rgb(1.959229%,3.919983%,18.818665%);fill-opacity:1;" d="M 323.210938 533.578125 L 299.863281 533.578125 L 299.863281 568.617188 L 279.386719 568.617188 L 299.589844 477.730469 L 276.785156 472.621094 L 253.433594 577.746094 C 252.660156 581.210938 253.527344 584.863281 255.714844 587.597656 C 257.949219 590.382812 261.28125 591.980469 264.835938 591.980469 L 299.863281 591.980469 L 299.863281 615.339844 L 323.210938 615.339844 L 323.210938 591.980469 L 334.886719 591.980469 L 334.886719 568.617188 L 323.210938 568.617188 L 323.210938 533.578125 "/>
<path style=" stroke:none;fill-rule:nonzero;fill:rgb(1.959229%,3.919983%,18.818665%);fill-opacity:1;" d="M 428.285156 568.617188 C 428.285156 581.484375 417.796875 591.980469 404.9375 591.980469 C 392.074219 591.980469 381.585938 581.484375 381.585938 568.617188 L 381.585938 521.898438 C 381.585938 509.03125 392.074219 498.535156 404.9375 498.535156 C 417.796875 498.535156 428.285156 509.03125 428.285156 521.898438 Z M 404.9375 475.175781 C 379.167969 475.175781 358.238281 496.117188 358.238281 521.898438 L 358.238281 568.617188 C 358.238281 594.398438 379.167969 615.339844 404.9375 615.339844 C 430.703125 615.339844 451.636719 594.398438 451.636719 568.617188 L 451.636719 521.898438 C 451.636719 496.117188 430.703125 475.175781 404.9375 475.175781 "/>
<path style=" stroke:none;fill-rule:nonzero;fill:rgb(1.959229%,3.919983%,18.818665%);fill-opacity:1;" d="M 545.035156 533.578125 L 521.6875 533.578125 L 521.6875 568.617188 L 501.210938 568.617188 L 521.414062 477.730469 L 498.609375 472.621094 L 475.261719 577.746094 C 474.484375 581.210938 475.351562 584.863281 477.539062 587.597656 C 479.773438 590.382812 483.105469 591.980469 486.660156 591.980469 L 521.6875 591.980469 L 521.6875 615.339844 L 545.035156 615.339844 L 545.035156 591.980469 L 556.710938 591.980469 L 556.710938 568.617188 L 545.035156 568.617188 L 545.035156 533.578125 "/>
<path style=" stroke:none;fill-rule:nonzero;fill:rgb(1.959229%,3.919983%,18.818665%);fill-opacity:1;" d="M 416.613281 253.246094 L 393.261719 253.246094 L 393.261719 370.050781 L 416.613281 370.050781 L 416.613281 253.246094 "/>
<path style=" stroke:none;fill-rule:nonzero;fill:rgb(1.959229%,3.919983%,18.818665%);fill-opacity:1;" d="M 416.613281 393.414062 L 393.261719 393.414062 L 393.261719 416.773438 L 416.613281 416.773438 L 416.613281 393.414062 "/>
</g>
</svg>
